<?xml version="1.0" encoding="UTF-8" standalone="no"?>
<!-- Generator: Adobe Illustrator 22.1.0, SVG Export Plug-In . SVG Version: 6.00 Build 0)  -->

<svg
   version="1.0"
   x="0px"
   y="0px"
   viewBox="0 0 128 128"
   style="enable-background:new 0 0 128 128;"
   xml:space="preserve"
   id="svg9"
   sodipodi:docname="logo-3d.svg"
   inkscape:version="1.3.2 (091e20e, 2023-11-25, custom)"
   xmlns:inkscape="http://www.inkscape.org/namespaces/inkscape"
   xmlns:sodipodi="http://sodipodi.sourceforge.net/DTD/sodipodi-0.dtd"
   xmlns="http://www.w3.org/2000/svg"
   xmlns:svg="http://www.w3.org/2000/svg"><defs
   id="defs9" /><sodipodi:namedview
   id="namedview9"
   pagecolor="#ffffff"
   bordercolor="#000000"
   borderopacity="0.25"
   inkscape:showpageshadow="2"
   inkscape:pageopacity="0.0"
   inkscape:pagecheckerboard="0"
   inkscape:deskcolor="#d1d1d1"
   inkscape:zoom="4.2923591"
   inkscape:cx="30.75232"
   inkscape:cy="69.309205"
   inkscape:window-width="1920"
   inkscape:window-height="991"
   inkscape:window-x="-9"
   inkscape:window-y="-9"
   inkscape:window-maximized="1"
   inkscape:current-layer="svg9" />
<style
   type="text/css"
   id="style1">
	.st0{fill:#BABABA;}
	.st1{fill:#ADADAD;}
	.st2{fill:#D6D6D6;}
	.st3{fill:#C6C6C6;}
	.st4{fill:none;stroke:#EBEBEB;stroke-width:7;stroke-linecap:round;stroke-miterlimit:10;}
	.st5{fill:#EBEBEB;}
</style>
<g
   id="Слой_3">
	<polygon
   class="st0"
   points="96,64.3 64,48.9 64,82.3 "
   id="polygon1"
   style="display:inline" />
	<polygon
   class="st1"
   points="64,82.3 32,64.2 64,48.9 "
   id="polygon2"
   style="display:inline" />
<rect
   style="fill:#bababa;fill-opacity:1;stroke:#ffedcc;stroke-width:0;stroke-linecap:round;stroke-dasharray:none;paint-order:markers fill stroke"
   id="rect12"
   width="7.0262814"
   height="6.8468804"
   x="53.349522"
   y="62.177574" /><rect
   style="fill:#bababa;fill-opacity:1;stroke:#ffedcc;stroke-width:0;stroke-linecap:round;stroke-dasharray:none;paint-order:markers fill stroke"
   id="rect14"
   width="15.303452"
   height="23.9757"
   x="69.307037"
   y="59.465702" /><rect
   style="fill:#adadad;fill-opacity:1;stroke:#ffedcc;stroke-width:0;stroke-linecap:round;stroke-dasharray:none;paint-order:markers fill stroke"
   id="rect16"
   width="10.633158"
   height="22.009678"
   x="59.250443"
   y="65.613663" /><rect
   style="fill:#bababa;fill-opacity:1;stroke:#ffedcc;stroke-width:0;stroke-linecap:round;stroke-dasharray:none;paint-order:markers fill stroke"
   id="rect11"
   width="21.040024"
   height="39.338688"
   x="37.479988"
   y="64.79985"
   ry="0" /><rect
   style="enable-background:new 0 0 128 128;fill:#adadad;fill-opacity:1;stroke:#ffedcc;stroke-width:0;stroke-linecap:round;stroke-dasharray:none;paint-order:markers fill stroke"
   id="rect15"
   width="5.6193643"
   height="6.7898078"
   x="47.73016"
   y="61.907848" /><rect
   style="fill:#adadad;fill-opacity:1;stroke:#ffedcc;stroke-width:0;stroke-linecap:round;stroke-dasharray:none;paint-order:markers fill stroke"
   id="rect17"
   width="5.3684678"
   height="7.4401283"
   x="73.540222"
   y="69.4935" /><rect
   style="fill:#adadad;fill-opacity:1;stroke:#ffedcc;stroke-width:0;stroke-linecap:round;stroke-dasharray:none;paint-order:markers fill stroke"
   id="rect18"
   width="5.2487569"
   height="6.8553624"
   x="84.610489"
   y="64.59819" /><rect
   style="enable-background:new 0 0 128 128;fill:#bababa;fill-opacity:1;stroke:#ffedcc;stroke-width:0;stroke-linecap:round;stroke-dasharray:none;paint-order:markers fill stroke"
   id="rect13"
   width="5.2936707"
   height="11.376134"
   x="68.246552"
   y="69.551468" /><rect
   style="fill:#adadad;fill-opacity:1;stroke:#ffedcc;stroke-width:0;stroke-linecap:round;stroke-dasharray:none;paint-order:markers fill stroke"
   id="rect19"
   width="7.5156441"
   height="12.441115"
   x="61.191833"
   y="54.128242" /><rect
   style="enable-background:new 0 0 128 128;fill:#bababa;fill-opacity:1;stroke:#ffedcc;stroke-width:0;stroke-linecap:round;stroke-dasharray:none;paint-order:markers fill stroke"
   id="rect60"
   width="5.4799881"
   height="7.7754445"
   x="58.520012"
   y="76.29837" /></g>
<g
   id="Слой_2"
   style="display:inline">
	<polygon
   class="st2"
   points="64,128 64,90.3 16.8,63.7 16.8,128 "
   id="polygon3"
   style="display:inline" />
	<polygon
   class="st3"
   points="64,128 64,90.3 111.1,63.7 111.1,128 "
   id="polygon4"
   style="display:inline" />
	
	
	
</g>
<g
   id="Слой_1"
   style="display:inline">
	<polygon
   class="st4"
   points="64,45 103.6,64 64,86.3 24.4,64 "
   id="polygon8"
   style="display:inline" />
	
</g>
<g
   id="g9"
   transform="matrix(0.69465837,0.3596699,-0.7193398,0.34732919,65.061846,-613.48999)"><path
     fill="#42463E"
     opacity="1"
     stroke="none"
     d="m 979.8338,963.02244 c -7.63229,-0.1525 -15.53951,-0.67018 -23.15202,-0.82229 -0.39969,-0.008 -0.35751,0.0369 -0.36617,-0.39437 -0.24846,-12.38198 -0.19588,-24.49314 -0.44301,-36.8751 -0.008,-0.41622 -0.0459,-0.37872 0.33968,-0.37123 2.21453,0.0433 4.25713,0.26556 6.4717,0.31088 0.40524,0.008 0.36341,-0.0368 0.37201,0.3881 0.0918,4.54102 0.34875,8.9987 0.43961,13.5397 0.002,0.0775 0.011,0.1563 0.004,0.23238 -0.0183,0.19078 0.0644,0.23943 0.23214,0.24181 1.00165,0.0132 2.00358,0.0381 3.0054,0.0581 4.40933,0.0881 8.81866,0.17621 13.22798,0.26441 0.0791,0.002 0.15839,0.008 0.23724,0.005 0.10971,-0.003 0.15679,0.0526 0.15468,0.16794 -10e-4,0.0845 0.004,0.16907 0.005,0.25382 0.0983,4.9147 0.19673,9.82941 0.29502,14.74413 0.002,0.0845 -0.0132,0.17531 0.0119,0.25193 0.0203,0.061 0.0832,0.12926 0.14022,0.15085 0.0716,0.0273 0.15639,0.01 0.23547,0.0116 3.34159,0.0668 11.16814,0.44062 14.50972,0.50731 0.31304,0.006 0.3135,0.006 0.32012,0.33693 0.048,2.39742 0.46169,4.91913 0.50974,7.31654 0.007,0.34673 0.007,0.34716 -0.31091,0.34084 -3.78979,-0.0757 -12.43031,-0.58273 -16.23986,-0.65885 m -8.79923,-8.04272 c 0.6721,0.0134 1.34421,0.0269 2.01632,0.0403 0.25633,0.005 0.25752,0.003 0.25191,-0.27897 -0.0458,-2.30515 -0.0919,-4.61034 -0.13908,-6.91552 -0.002,-0.0838 -0.0219,-0.16772 -0.0241,-0.25155 -0.005,-0.20977 -0.10684,-0.25645 -0.29106,-0.25977 -2.97161,-0.0525 -5.94339,-0.11387 -8.91515,-0.17325 -0.26967,-0.005 -0.27071,-0.004 -0.26494,0.28592 0.0471,2.36861 0.0945,4.7372 0.14215,7.10583 0.006,0.30237 0.007,0.30338 0.28543,0.30895 2.29965,0.046 4.59929,0.0919 6.93849,0.13864 z"
     id="path2"
     style="display:inline;fill:#ebebeb;fill-opacity:1;stroke-width:0.0409006"
     sodipodi:nodetypes="cscccccccccccccccccccccccccccccccscc" /><path
     fill="#42463E"
     opacity="1"
     stroke="none"
     d="m 970.80677,925.76204 c 3e-5,-0.55409 -3.6e-4,-1.08658 3.3e-4,-1.61908 3.6e-4,-0.27961 10e-4,-0.27964 0.27103,-0.28118 0.0269,-1.7e-4 0.0537,-10e-5 0.0806,-10e-5 7.08616,0 14.17233,-2e-4 21.25848,6e-4 0.39635,2e-5 0.35996,-0.0418 0.36014,0.37922 0,2.43221 0,4.86443 0,7.29663 -4e-5,0.35629 0,0.35676 -0.32169,0.35676 -7.11302,10e-5 -14.22605,10e-5 -21.33908,-2e-5 -0.30956,0 -0.31017,-5.8e-4 -0.3102,-0.32576 -2e-4,-1.92848 -1.1e-4,-3.85701 -1.1e-4,-5.80709 z"
     id="path3"
     style="display:inline;fill:#ebebeb;fill-opacity:1;stroke-width:0.0417273" /><path
     fill="#42463E"
     opacity="1"
     stroke="none"
     d="m 986.44861,938.63263 c 1.84653,3e-5 3.67288,-1.7e-4 5.49926,2.8e-4 0.26399,10e-5 0.26532,10e-4 0.26536,0.28689 0,2.48896 -0.004,4.97795 0.004,7.46691 0,0.2111 -0.0473,0.28458 -0.25673,0.28391 -2.35678,-0.007 -4.71361,-0.007 -7.07041,-5.8e-4 -0.20519,5.8e-4 -0.26012,-0.0651 -0.25957,-0.28087 0.006,-2.49617 0.006,-4.99234 3.6e-4,-7.48849 -3.6e-4,-0.20215 0.0475,-0.27787 0.24648,-0.27277 0.51673,0.0124 1.03395,0.005 1.57113,0.005 z"
     id="path4"
     style="display:inline;fill:#ebebeb;fill-opacity:1;stroke-width:0.0417273" /></g></svg>
