<?xml version="1.0" encoding="UTF-8" standalone="no"?>
<svg
   version="1.1"
   id="Layer_1"
   x="0px"
   y="0px"
   width="100%"
   viewBox="0 0 1920 1920"
   enable-background="new 0 0 1920 1920"
   xml:space="preserve"
   sodipodi:docname="logo-dark.svg"
   inkscape:version="1.3.2 (091e20e, 2023-11-25, custom)"
   xmlns:inkscape="http://www.inkscape.org/namespaces/inkscape"
   xmlns:sodipodi="http://sodipodi.sourceforge.net/DTD/sodipodi-0.dtd"
   xmlns="http://www.w3.org/2000/svg"
   xmlns:svg="http://www.w3.org/2000/svg"><defs
   id="defs5" /><sodipodi:namedview
   id="namedview5"
   pagecolor="#ffffff"
   bordercolor="#000000"
   borderopacity="0.25"
   inkscape:showpageshadow="2"
   inkscape:pageopacity="0.0"
   inkscape:pagecheckerboard="0"
   inkscape:deskcolor="#d1d1d1"
   inkscape:zoom="0.28615728"
   inkscape:cx="618.54097"
   inkscape:cy="1113.0243"
   inkscape:window-width="1920"
   inkscape:window-height="991"
   inkscape:window-x="-9"
   inkscape:window-y="-9"
   inkscape:window-maximized="1"
   inkscape:current-layer="Layer_1" />

<path
   fill="#42463E"
   opacity="1.000000"
   stroke="none"
   d=" M1099.000000,1409.000000   C906.026001,1409.000000 713.551941,1409.005615 521.077942,1408.984131   C510.972137,1408.983032 512.016418,1410.026978 512.015747,1399.832886   C511.996307,1107.205688 511.996826,814.578552 512.013916,521.951416   C512.014465,512.114746 511.044495,513.019043 520.793701,513.014038   C576.786133,512.985413 632.778564,512.982178 688.770996,513.016418   C699.016785,513.022644 697.981750,511.977142 697.984131,522.016052   C698.009644,629.334900 697.999939,736.653748 698.000305,843.972595   C698.000305,845.805664 698.192810,847.662170 697.968872,849.467163   C697.408142,853.987305 699.477783,855.098145 703.718323,855.072388   C729.047241,854.918457 754.377686,854.999695 779.707581,854.999756   C891.192566,855.000244 1002.677490,854.999878 1114.162476,855.001343   C1116.162109,855.001343 1118.164795,855.095581 1120.160645,855.013733   C1122.937134,854.899841 1124.099854,856.185608 1123.988037,858.909058   C1123.905884,860.904907 1123.998779,862.907654 1123.998779,864.907288   C1124.000122,981.058289 1123.999756,1097.209229 1124.001709,1213.360229   C1124.001709,1215.359741 1123.579346,1217.510254 1124.184692,1219.311035   C1124.667603,1220.747070 1126.224976,1222.325684 1127.655396,1222.812256   C1129.452026,1223.423462 1131.605713,1222.998169 1133.605225,1222.998169   C1218.093750,1223.000488 1302.582397,1222.999146 1387.070923,1223.001953   C1394.985352,1223.002319 1394.997192,1223.013428 1394.997681,1230.816406   C1395.001343,1287.475464 1395.000854,1344.134399 1394.998413,1400.793457   C1394.998047,1408.987793 1394.989868,1408.997925 1386.961182,1408.998169   C1291.140747,1409.000610 1195.320435,1408.999878 1099.000000,1409.000000  M880.500000,1223.000000   C897.493408,1222.999390 914.486816,1223.010376 931.480225,1222.991821   C937.961487,1222.984741 937.992371,1222.953857 937.993469,1216.277100   C938.002075,1161.798218 938.003784,1107.319458 937.975769,1052.840576   C937.974731,1050.861816 937.507324,1048.884033 937.494629,1046.904419   C937.462891,1041.945923 934.921997,1040.891602 930.263916,1040.900513   C855.126709,1041.043091 779.989197,1040.999023 704.851746,1041.005859   C698.033325,1041.006470 698.006592,1041.034424 698.005615,1047.890747   C697.997986,1103.869019 697.998535,1159.847168 698.004517,1215.825439   C698.005249,1222.970947 698.026306,1222.994263 705.067810,1222.995117   C763.211853,1223.002075 821.355957,1222.999634 880.500000,1223.000000  z"
   id="path2"
   style="fill:#554f44;fill-opacity:1" />
<path
   fill="#42463E"
   opacity="1.000000"
   stroke="none"
   d=" M864.000000,557.000000   C864.000732,544.170837 863.987000,531.841614 864.007874,519.512451   C864.018860,513.038269 864.046387,513.038086 870.730896,513.002075   C871.397339,512.998474 872.063782,513.000122 872.730225,513.000122   C1048.504395,513.000061 1224.278687,512.994751 1400.052856,513.014038   C1409.884521,513.015137 1408.981079,512.045227 1408.985962,521.794739   C1409.014526,578.109131 1409.000977,634.423523 1408.998535,690.737915   C1408.998169,698.987122 1408.990234,698.997925 1401.019775,698.997986   C1224.579102,699.000061 1048.138428,699.000183 871.697754,698.997559   C864.018982,698.997437 864.004028,698.983704 864.003174,691.455078   C863.997925,646.803406 864.000183,602.151672 864.000000,557.000000  z"
   id="path3"
   style="fill:#554f44;fill-opacity:1" />
<path
   fill="#42463E"
   opacity="1.000000"
   stroke="none"
   d=" M1252.000000,855.000000   C1297.803467,855.000610 1343.106812,854.996216 1388.410278,855.007446   C1394.958618,855.009094 1394.992065,855.043579 1394.993042,861.649780   C1395.001831,919.278381 1394.945557,976.907166 1395.091919,1034.535400   C1395.104248,1039.423828 1393.918213,1041.124390 1388.724121,1041.108765   C1330.263306,1040.932373 1271.801514,1040.936768 1213.340454,1041.103516   C1208.250610,1041.118042 1206.888306,1039.593750 1206.901855,1034.600098   C1207.059692,976.805359 1207.050293,919.009827 1206.913940,861.214966   C1206.902954,856.532166 1208.091187,854.781311 1213.027832,854.899841   C1225.845337,855.207581 1238.675171,855.001221 1252.000000,855.000000  z"
   id="path4"
   style="fill:#554f44;fill-opacity:1" />

<path
   style="color:#000000;fill:none;stroke:#554f44;stroke-width:176.765;stroke-linecap:round;stroke-linejoin:miter;stroke-dasharray:none;stroke-opacity:1;paint-order:markers fill stroke"
   d="M 88.382708,88.382708 H 1831.6173 V 1831.6173 H 88.382708 Z"
   id="rect5"
   sodipodi:nodetypes="ccccc" /></svg>
