<?xml version="1.0" encoding="utf-8"?>
<!-- Generator: Adobe Illustrator 22.1.0, SVG Export Plug-In . SVG Version: 6.00 Build 0)  -->
<svg version="1.0" id="Слой_1" xmlns="http://www.w3.org/2000/svg" xmlns:xlink="http://www.w3.org/1999/xlink" x="0px" y="0px"
	 viewBox="0 0 128 128" style="enable-background:new 0 0 128 128;" xml:space="preserve">
<style type="text/css">
	.st0{fill:#383530;}
	.st1{fill:#2D2B28;}
	.st2{fill:#4C473F;}
	.st3{fill:#423E38;}
	.st4{fill:none;stroke:#554F44;stroke-width:7;stroke-linecap:round;stroke-miterlimit:10;}
	.st5{fill:#554F44;}
</style>
<polygon class="st0" points="64,48.9 64,82.3 96,64.3 "/>
<polygon class="st1" points="32,64.2 64,48.9 64,82.3 "/>
<polygon class="st2" points="16.8,63.7 16.8,128 64,128 64,90.3 "/>
<polygon class="st3" points="111.2,63.7 111.2,128 64,128 64,90.3 "/>
<polygon class="st2" points="36.8,64 36.8,66.9 64,82.4 64,79.4 "/>
<polygon class="st3" points="67.8,77 67.8,80.2 64,82.4 64,79.4 "/>
<polygon class="st3" points="44.3,64.3 67.8,52.3 67.8,77 "/>
<polygon class="st4" points="64,45 103.6,64 64,86.3 24.4,64 "/>
<polygon class="st5" points="36.8,64 64,50.7 67.8,52.3 44.3,64.3 67.8,77 64,79.4 "/>
</svg>
