<?xml version="1.0" encoding="utf-8"?>
<!-- Generator: Adobe Illustrator 22.1.0, SVG Export Plug-In . SVG Version: 6.00 Build 0)  -->
<svg version="1.0" xmlns="http://www.w3.org/2000/svg" xmlns:xlink="http://www.w3.org/1999/xlink" x="0px" y="0px"
	 viewBox="0 0 128 128" style="enable-background:new 0 0 128 128;" xml:space="preserve">
<style type="text/css">
	.st0{fill:#0071BC;stroke:#0000FF;stroke-width:0.5;stroke-linecap:round;stroke-miterlimit:10;}
	.st1{fill:none;stroke:#0000FF;stroke-width:0.5;stroke-linecap:round;stroke-miterlimit:10;}
	.st2{fill:#FFBDAE;stroke:#DB9A83;stroke-width:0.5;stroke-linecap:round;stroke-miterlimit:10;}
	.st3{fill:#808080;stroke:#666666;stroke-width:0.5;stroke-linecap:round;stroke-miterlimit:10;}
	.st4{fill:#808080;}
	.st5{fill:#666666;}
	.st6{fill:#0071BC;}
	.st7{fill:none;stroke:#DB9A83;stroke-width:0.5;stroke-linecap:round;stroke-miterlimit:10;}
	.st8{fill:#8C6239;stroke:#754C24;stroke-width:0.5;stroke-linecap:round;stroke-miterlimit:10;}
</style>
<g id="Слой_10">
	<polygon class="st0" points="49.5,110.1 49.2,129 83.5,129 82.1,110.8 	"/>
	<line class="st1" x1="61.3" y1="111.2" x2="61" y2="129"/>
	<path class="st1" d="M64.8,111.5c0,0,0.2,5.1-0.4,6.7s-3.2,1.9-3.2,1.9"/>
	<path class="st1" d="M53.9,112.6c-1.1,1.8-4,4.2-4.6,4.5"/>
</g>
<g id="Слой_6">
	<path class="st2" d="M29.3,24.6c0,0,0.6-3.8,0.3-4.7c-0.3-0.9-1.4-0.5-1.3-3.6s-1-7-1-7s0-0.4,0.3-0.5c0.3-0.1,0.7-0.1,0.9,0.6
		c0.3,0.8,0.6,3,0.7,3.1c0.1,0.1,0.4-3.8,0.2-4.7c-0.2-0.9,0.2-1.3,0.2-1.3s0.8-0.8,1.2,1.4c0.3,2.2,0,3.1,0.4,3.9
		c0.4,0.8,0.6,0.4,0.6,0.4s0.8-3.1,0.7-6.3c0-1.1,0.4-1.3,0.6-1.3s1,0.5,1,2.4c0,1.9-0.4,4.5-0.1,4.8c0.3,0.3,0.8,0.7,1.1-2.1
		c0.4-2.8,0.4-3.9,0.6-3.9c0.1,0,0.2-0.1,0.6,0c0.5,0.1,0.5,0.8,0.4,1.9s-0.3,3.6-0.4,5.1s0.1,2.5,0.4,2.3c0.3-0.2,1.7-1.3,2.3-1.2
		c0.6,0,0.8,0,1.1,0.2c0.3,0.2,0.3,0.6,0,0.7c-0.4,0.1-1.3,0.5-1.7,1.2c-0.4,0.7-1.3,1.6-1.4,2.4c-0.1,0.8-0.6,1.1-1.1,1.3
		s-0.7,0.9-0.7,2.8c0,1.8,0.1,1.9,0.1,1.9L29.3,24.6z"/>
</g>
<g id="Слой_5">
	<path class="st2" d="M76.4,38.5c-0.3,4.1-0.7,7.5-0.5,9c0.7,4.1,3.5,7,3.5,7s-9.3,6.7-14.2,6.6s-10.4-5-9.9-6.8c0,0,7.5-0.1,9-3
		c1.5-2.9-0.5-7.9-0.5-7.9L76.4,38.5z"/>
</g>
<g id="Слой_7">
	<path class="st3" d="M36.3,24.5l0-1.1c0-0.9-0.7-1.7-1.6-1.7l-5.1-0.2c-1,0-1.7,0.7-1.8,1.7l0,1c0,0.5,0.2,1,0.7,1.4l2.6,2
		c0.6,0.4,1.3,0.5,1.9,0.1l2.5-1.6C36,25.6,36.3,25.1,36.3,24.5z"/>
	<path class="st3" d="M48.4,106.6v2.4c0,0.6,0.4,1,1,1.1c3.4,0.4,14.8,1.5,17.8,1.6c3,0.1,11.9-0.7,14.9-0.9c0.6,0,1-0.5,1-1.1v-3.7
		c0-0.6-0.5-1.1-1.2-1.1l-32.5,0.6C48.9,105.5,48.4,106,48.4,106.6z"/>
	<g>
		<g>
			<path class="st4" d="M64.2,109.5c-7.1,0-12.4-1-15.2-2.8c-6.4-4.1-4.9-15.3-3.8-23.5c0.3-2,0.5-3.9,0.7-5.5
				c0.4-4.8-4.4-10.8-9.5-17.2c-3.7-4.7-7.6-9.6-9.3-14c-3.7-9.4-2.9-15.5-2.5-19.1l0.1-0.9c0.2-1.4,2.9-2.5,6.5-2.5
				c3.5,0,6.5,1,7.6,2.6c1.2,1.7,1.1,2.6,1.1,4.2c-0.1,1.9-0.2,4.8,1.5,11.1c3,10.8,12,12.3,13.6,12.4c0.1,0.5,0.4,1.9,2.4,3.6
				c1.8,1.5,6,3.6,7.7,3.6c5.7,0,13.9-5.9,14.9-6.7c1,0.2,8.8,1.8,10.4,5.3c0,0.2-0.4,2.3-0.8,4.9c-0.7,3.9-1.8,9.7-2.7,15.9
				c-0.7,4.5-0.6,8.9-0.6,12.7c0.1,6.7,0.1,12-3.5,13.8C81.7,108,73.1,109.5,64.2,109.5z"/>
			<path class="st5" d="M31.2,24.3c3.4,0,6.3,1,7.3,2.5c1.1,1.7,1.1,2.4,1,4c-0.1,1.9-0.2,4.8,1.5,11.2
				c2.9,10.6,11.6,12.3,13.6,12.6c0.1,0.7,0.6,2,2.4,3.6c1.6,1.4,5.9,3.6,7.9,3.7l0.1,0c5.6,0,13.6-5.7,14.9-6.6
				c1.3,0.3,8.5,1.8,10.1,5.1c0,0.5-0.4,2.5-0.8,4.8c-0.7,3.9-1.8,9.7-2.7,15.9c-0.7,4.5-0.6,8.9-0.6,12.8
				c0.1,6.6,0.1,11.9-3.3,13.6c-1,0.5-9.6,1.9-18.4,1.9c-7.1,0-12.3-0.9-15.1-2.7c-6.3-4-4.8-15.1-3.6-23.2c0.3-2,0.5-3.9,0.7-5.5
				c0.4-4.9-4.4-10.9-9.5-17.4c-3.7-4.7-7.6-9.5-9.3-13.9c-3.6-9.3-2.9-15.4-2.4-19c0-0.3,0.1-0.6,0.1-0.9
				C25.1,25.3,27.9,24.3,31.2,24.3 M31.2,23.8c-3.4,0-6.5,1-6.7,2.7c-0.4,3.4-1.6,9.9,2.4,20.1s19.4,22.8,18.8,31s-4.9,24,3.2,29.2
				c3.3,2.1,9.3,2.8,15.4,2.8c8.7,0,17.5-1.4,18.6-2c5.9-2.9,2.4-14.5,4.2-26.7c1.6-11,3.7-20.6,3.5-20.9c-1.8-4-10.7-5.5-10.7-5.5
				s-8.9,6.7-14.8,6.7c0,0,0,0-0.1,0c-1.7,0-5.8-2.1-7.5-3.5c-2.4-2-2.3-3.6-2.3-3.6s-10.3-0.5-13.6-12.3s0-11.5-2.6-15.3
				C37.7,24.6,34.4,23.8,31.2,23.8L31.2,23.8z"/>
		</g>
	</g>
	<path class="st2" d="M90.5,111.9c0,0-3.3,2-3.8,2.7c-0.5,0.8,0.5,1.4-1.9,3.3c-2.4,1.9-4.7,5.2-4.7,5.2s-0.3,0.3-0.5,0.1
		s-0.5-0.4-0.1-1.1c0.4-0.7,2-2.4,2-2.5c0-0.2-3.2,2.1-3.8,2.8c-0.6,0.7-1.2,0.7-1.2,0.7s-1.1-0.1,0.3-1.8s2.4-2,2.8-2.8
		c0.4-0.8-0.1-0.7-0.1-0.7s-2.9,1.3-5.3,3.4c-0.8,0.7-1.2,0.5-1.4,0.4c-0.1-0.2-0.2-1.1,1.2-2.2s3.7-2.6,3.7-3s0.1-1.1-2.4,0.5
		s-3.3,2.2-3.4,2.1s-0.2,0-0.4-0.5c-0.2-0.4,0.3-0.9,1.2-1.5c0.9-0.7,3-2.1,4.2-2.9c1.2-0.9,1.8-1.7,1.5-1.8s-2.1-0.5-2.4-1
		c-0.3-0.4-0.5-0.6-0.6-1c0-0.4,0.3-0.6,0.5-0.4c0.3,0.2,1.2,0.7,2,0.6c0.8-0.1,2,0,2.7-0.4s1.2-0.3,1.7,0c0.5,0.2,1.2,0,2.6-1.2
		c1.4-1.2,1.5-1.3,1.5-1.3L90.5,111.9z"/>
	<path class="st3" d="M86.4,106.1l-1.8,1.5c-0.4,0.3-0.4,0.8-0.1,1.2l4.2,5.3c0.3,0.4,0.9,0.4,1.2,0.1l1.7-1.4
		c0.2-0.2,0.3-0.4,0.3-0.7l-0.3-4.2c0-0.4-0.3-0.7-0.6-0.8l-3.8-1.1C87,105.8,86.7,105.9,86.4,106.1z"/>
	<path class="st3" d="M84.9,73.7c0,0,5.8,3.7,4.4,16.3c-0.7,6.3-1.3,10.5-2.5,13.2c-0.6,1.4-2.2,3.3-1.7,4.5
		c0.5,1.3,4.7,6.1,6.2,6.7c1.5,0.6,3.6-0.1,4.8-1.4c0.4-0.4,3.4-4.6,5.4-9.1c1.8-4.4,2.6-9.1,2.5-11.6c-0.1-6.5-0.3-14.3-3.8-21.3
		c-3-6.1-8.4-9.9-10.7-12"/>
</g>
<g id="Слой_8">
	<polygon class="st6" points="70.9,123.8 80.3,124.5 83.2,120 81,118.7 79.2,117.3 76.9,115 76.1,113.8 70.2,117.9 	"/>
	<path class="st1" d="M75.9,113.3c0,0,0.5,1.8,3.1,3.9c3.3,2.6,4.5,3,4.5,3"/>
</g>
<g id="Слой_3">
	<path class="st2" d="M56.6,34.9c0,4-0.4,8.2,2.5,10.4c2.9,2.2,4.8,4,5.9,4.1c1.1,0.1,9.8-2.5,10.2-5.1c0.4-2.6,0.4-3.2,0.4-3.2
		s0.7,1.8,1.6,1.1c0.9-0.7,2.6-4.1,1.3-4.5c-1.3-0.4-2.6,0.7-2.8,0.1c-0.2-0.6,0.4-4.4,0-5.4c-0.4-1-1.8-2.4-2.2-1.7
		c-0.4,0.7-2.3,0.9-6.4,1.3c-3,0.2-6.2,0.9-8.2-0.5c-1.4-1-1.6-1.5-2.3,0C56.6,31.7,56.6,34.9,56.6,34.9z"/>
</g>
<g id="Слой_2">
	<path class="st7" d="M62.4,36.4c0,0,0.3,2-1.2,1.9c-1.5,0-1.4-2.3-1.4-2.3"/>
	<path class="st7" d="M57.6,36.8c0,0,0.3-0.6,2.4-0.7c2.1,0,3.2,0.7,3.2,0.7"/>
	<path class="st7" d="M72,36.8c0,0,0.3,2-1.2,1.9c-1.5,0-1.4-2.3-1.4-2.3"/>
	<path class="st7" d="M67.2,37.1c0,0,0.3-0.6,2.4-0.7c2.1,0,3.2,0.7,3.2,0.7"/>
	<path class="st7" d="M64.8,38c-0.1,1.2-1.6,3-1.9,3.3c-0.3,0.3,0,1,1,0.9"/>
	<path class="st7" d="M64,45.4c2.5,0,3.8-0.5,5.1-1.1"/>
	<path class="st7" d="M76.3,38.7c1.3-0.2,1.2-0.5,1.7-0.2c0.5,0.3-0.8,2.1-0.8,2.1"/>
	<path class="st7" d="M57.6,34.3c4.7-0.2,5.9,0,5.9,0"/>
	<path class="st7" d="M72.8,34.4c-4.7-0.2-5.9,0-5.9,0"/>
</g>
<g id="Слой_4">
	<path class="st8" d="M56.6,31.2c0,0-1.3-4.3-0.4-5.4s0.7,0.5,0.7,0.5s0.3-1.6,0.8-2.5s1.6-4.1,9-3.9c5.9,0.1,8.3,3.3,8.2,4
		c-0.1,0.8-0.4,2.2-0.4,2.2s0.4-1.8,1-1.8c1.4,0.1,2.9,0.6,3.1,5.4s-0.6,7.5-0.6,7.5S76,38,76,37.2s0.8-4.8-0.6-6.1
		c-1.3-1.2-1.3,0.1-1.7-1c-0.4-1,0.1,0-0.6,0.4c-0.7,0.5-8.6,1.5-11.5,1.3c-2.9-0.3-4.1-2.7-4.3-1.7S56.6,31.2,56.6,31.2z"/>
</g>
</svg>
